<svg width="192" height="52" viewBox="0 0 192 52" fill="none" xmlns="http://www.w3.org/2000/svg">
<path d="M180.367 51.9995H12.633H12.4262L12.2798 51.8534L1.14672 40.742L0.999939 40.5955V40.3881L0.999961 12.6114V12.404L1.14674 12.2575L12.2788 1.14611L12.4252 1H12.632H145.322H145.529L145.675 1.14611L156.774 12.2239H191.5H192V12.7239V40.3881V40.5955L191.853 40.742L180.72 51.8534L180.367 51.5139V51.9995Z" fill="#050509"/>
<path d="M179.867 50.9998L191 39.8881V12.2239H155.954L155.954 12.1105L144.822 1H12.132L0.999961 12.1114L0.999939 39.8881L12.133 50.9995L179.867 50.9998ZM179.867 51.9995H11.7193L-6.10352e-05 40.3029L-3.92795e-05 11.6966L11.7184 0H145.236L156.481 11.2239H192V40.3029L180.573 51.7073L179.867 51.0282V51.9995Z" fill="#02BEC5"/>
<path d="M181 1H186L191 6H186L181 1Z" fill="white"/>
<path d="M171 1H176L181 6H176L171 1Z" fill="white"/>
<path d="M161 1H166L171 6H166L161 1Z" fill="white"/>
<path d="M151 1H156L161 6H156L151 1Z" fill="white"/>
</svg>
