<svg width="213" height="266" viewBox="0 0 213 266" fill="none" xmlns="http://www.w3.org/2000/svg">
<path d="M50.6159 13.3076H50.4053L50.2582 13.157L38.2373 0.848633H10.3506L0.5 10.9348V254.755L10.8483 264.847L111.856 263.813L123.879 251.502L124.026 251.351H124.236H161.947H162.158L162.305 251.502L174.326 263.81H201.649L211.5 253.724V30.6616L182.384 0.848633H105.506L93.4852 13.157L93.3381 13.3076H93.1275H50.6159Z" stroke="#02BEC5"/>
<path opacity="0.8" d="M144.858 261.349H151.207L157.558 255H151.207L144.858 261.349Z" fill="white"/>
<path opacity="0.65" d="M131.858 261.349H138.207L144.558 255H138.207L131.858 261.349Z" fill="white"/>
<path opacity="0.4" d="M118.858 261.349H125.207L131.558 255H125.207L118.858 261.349Z" fill="white"/>
<path d="M59.5579 6.34863H53.2089L46.8579 -0.000367165H53.2089L59.5579 6.34863Z" fill="white"/>
<path opacity="0.8" d="M72.2549 6.34863H65.9059L59.5549 -0.000367165H65.9059L72.2549 6.34863Z" fill="white"/>
<path opacity="0.65" d="M85.2549 6.34863H78.9059L72.5549 -0.000367165H78.9059L85.2549 6.34863Z" fill="white"/>
<path d="M194 0.348633L212.5 18.8486V0.348633H194Z" fill="#02BEC5"/>
</svg>
